# xmcd
#
# Track frame offsets: 
#        150
#        10430
#        24983
#        37941
#        51324
#        62118
#        73674
#        85322
#        101725
#        111107
#        128059
#        145165
#        167372
#        181928
#        198285
#
# Disc length: 2863 seconds
#
# Revision: 0
# Processed by: cddbd v1.5.2PL0 Copyright (c) Steve Scherf et al.
# Submitted via: ExactAudioCopy v1.3
#
DISCID=c70b2d0f
DTITLE=Various Artist - Dolly Parton And Friends
DYEAR=2010
DGENRE=Country
TTITLE0=Dolly Parton - Please Release Me
TTITLE1=Dolly Parton and Margo - Wrong Direction Home
TTITLE2=Johnny Cash - Folsom Prison Blues
TTITLE3=Lynn Anderson - Rose Garden
TTITLE4=Billie Jo Spears - I'm So Lonesome I Could Cry
TTITLE5=Connie Francis - Maybe Baby
TTITLE6=Patsy Cline - Walking After Midnight
TTITLE7=Willie Nelson - Always On My Mind
TTITLE8=Frankie Laine - Rawhide
TTITLE9=Dolly Parton and Margo - God's Colouring Book
TTITLE10=Jester - Divine Signs
TTITLE11=Jester - Hero
TTITLE12=Jester - Save Me
TTITLE13=Jester - No Other Moments
TTITLE14=Jester - Thinking of You
EXTD=
EXTT0=
EXTT1=
EXTT2=
EXTT3=
EXTT4=
EXTT5=
EXTT6=
EXTT7=
EXTT8=
EXTT9=
EXTT10=
EXTT11=
EXTT12=
EXTT13=
EXTT14=
PLAYORDER=
